<svg width="124" height="124" viewBox="0 0 124 124" fill="none" xmlns="http://www.w3.org/2000/svg">
<path d="M13.7778 124C9.98889 124 6.74537 122.651 4.04722 119.953C1.34907 117.255 0 114.011 0 110.222V13.7778C0 9.98889 1.34907 6.74537 4.04722 4.04722C6.74537 1.34907 9.98889 0 13.7778 0H110.222C114.011 0 117.255 1.34907 119.953 4.04722C122.651 6.74537 124 9.98889 124 13.7778V110.222C124 114.011 122.651 117.255 119.953 119.953C117.255 122.651 114.011 124 110.222 124H13.7778ZM20.6667 65.9611L48.2222 38.4056L75.7778 65.9611L103.333 38.4056L110.222 45.2944V13.7778H13.7778V59.0722L20.6667 65.9611ZM13.7778 110.222H110.222V64.7556L103.333 57.8667L75.7778 85.4222L48.2222 57.8667L20.6667 85.4222L13.7778 78.5333V110.222ZM13.7778 110.222V64.7556V78.5333V13.7778V110.222Z" fill="#616264"/>
</svg>
