<svg width="110" height="110" viewBox="0 0 110 110" fill="none" xmlns="http://www.w3.org/2000/svg">
<path d="M33 66H77V62.975C77 58.9417 74.9833 55.6875 70.95 53.2125C66.9167 50.7375 61.6 49.5 55 49.5C48.4 49.5 43.0833 50.7375 39.05 53.2125C35.0167 55.6875 33 58.9417 33 62.975V66ZM55 44C58.025 44 60.6146 42.9229 62.7688 40.7687C64.9229 38.6146 66 36.025 66 33C66 29.975 64.9229 27.3854 62.7688 25.2313C60.6146 23.0771 58.025 22 55 22C51.975 22 49.3854 23.0771 47.2313 25.2313C45.0771 27.3854 44 29.975 44 33C44 36.025 45.0771 38.6146 47.2313 40.7687C49.3854 42.9229 51.975 44 55 44ZM0 110V11C0 7.975 1.07708 5.38542 3.23125 3.23125C5.38542 1.07708 7.975 0 11 0H99C102.025 0 104.615 1.07708 106.769 3.23125C108.923 5.38542 110 7.975 110 11V77C110 80.025 108.923 82.6146 106.769 84.7688C104.615 86.9229 102.025 88 99 88H22L0 110ZM17.325 77H99V11H11V83.1875L17.325 77Z" fill="white"/>
</svg>
