<svg width="12" height="19" viewBox="0 0 12 19" fill="none" xmlns="http://www.w3.org/2000/svg">
<path d="M5.7 19C4.02167 19 2.65208 18.7348 1.59125 18.2044C0.530417 17.674 0 16.9892 0 16.15C0 15.5958 0.229583 15.1129 0.68875 14.7013C1.14792 14.2896 1.78125 13.965 2.58875 13.7275L3.135 15.5325C2.86583 15.6117 2.62042 15.7106 2.39875 15.8294C2.17708 15.9481 2.02667 16.055 1.9475 16.15C2.15333 16.4033 2.62833 16.625 3.3725 16.815C4.11667 17.005 4.8925 17.1 5.7 17.1C6.5075 17.1 7.28729 17.005 8.03938 16.815C8.79146 16.625 9.27042 16.4033 9.47625 16.15C9.39708 16.055 9.24667 15.9481 9.025 15.8294C8.80333 15.7106 8.55792 15.6117 8.28875 15.5325L8.835 13.7275C9.6425 13.965 10.2719 14.2896 10.7231 14.7013C11.1744 15.1129 11.4 15.5958 11.4 16.15C11.4 16.9892 10.8696 17.674 9.80875 18.2044C8.74792 18.7348 7.37833 19 5.7 19ZM5.7 12.6587C5.985 12.1362 6.28583 11.6573 6.6025 11.2219C6.91917 10.7865 7.22792 10.3708 7.52875 9.975C8.11458 9.215 8.58167 8.53021 8.93 7.92063C9.27833 7.31104 9.4525 6.555 9.4525 5.6525C9.4525 4.6075 9.08833 3.72083 8.36 2.9925C7.63167 2.26417 6.745 1.9 5.7 1.9C4.655 1.9 3.76833 2.26417 3.04 2.9925C2.31167 3.72083 1.9475 4.6075 1.9475 5.6525C1.9475 6.555 2.12167 7.31104 2.47 7.92063C2.81833 8.53021 3.28542 9.215 3.87125 9.975C4.17208 10.3708 4.48083 10.7865 4.7975 11.2219C5.11417 11.6573 5.415 12.1362 5.7 12.6587ZM5.7 16.15C5.52583 16.15 5.3675 16.0985 5.225 15.9956C5.0825 15.8927 4.97958 15.7542 4.91625 15.58C4.55208 14.4558 4.09292 13.5138 3.53875 12.7537C2.98458 11.9938 2.44625 11.2654 1.92375 10.5687C1.41708 9.87208 0.977708 9.15167 0.605625 8.4075C0.233542 7.66333 0.0475 6.745 0.0475 5.6525C0.0475 4.06917 0.59375 2.73125 1.68625 1.63875C2.77875 0.54625 4.11667 0 5.7 0C7.28333 0 8.62125 0.54625 9.71375 1.63875C10.8063 2.73125 11.3525 4.06917 11.3525 5.6525C11.3525 6.745 11.1704 7.66333 10.8062 8.4075C10.4421 9.15167 9.99875 9.87208 9.47625 10.5687C8.96958 11.2654 8.43521 11.9938 7.87313 12.7537C7.31104 13.5138 6.84792 14.4558 6.48375 15.58C6.42042 15.7542 6.3175 15.8927 6.175 15.9956C6.0325 16.0985 5.87417 16.15 5.7 16.15ZM5.7 7.67125C6.25417 7.67125 6.72917 7.47333 7.125 7.0775C7.52083 6.68167 7.71875 6.20667 7.71875 5.6525C7.71875 5.09833 7.52083 4.62333 7.125 4.2275C6.72917 3.83167 6.25417 3.63375 5.7 3.63375C5.14583 3.63375 4.67083 3.83167 4.275 4.2275C3.87917 4.62333 3.68125 5.09833 3.68125 5.6525C3.68125 6.20667 3.87917 6.68167 4.275 7.0775C4.67083 7.47333 5.14583 7.67125 5.7 7.67125Z" fill="white"/>
</svg>
