<svg width="320" height="320" viewBox="0 0 320 320" fill="none" xmlns="http://www.w3.org/2000/svg">
<circle cx="160" cy="160" r="160" fill="#0C4B3B"/>
<g filter="url(#filter0_d_267_1079)">
<path d="M78.8539 187.507C78.8539 224.984 106.484 246.374 143.961 246.374C181.438 246.374 202.636 219.024 202.636 181.547C202.636 144.071 141.217 119.138 134.778 75.5504C119.919 48.8036 78.8539 150.031 78.8539 187.507Z" fill="white"/>
</g>
<g filter="url(#filter1_d_267_1079)">
<path d="M244.794 198.593C244.794 245.571 206.711 283.654 159.733 283.654C112.755 283.654 74.6723 245.571 74.6723 198.593C74.6723 151.615 151.662 120.362 159.733 65.7242C178.36 32.1967 244.794 151.615 244.794 198.593Z" fill="#43CAA9"/>
</g>
<g filter="url(#filter2_d_267_1079)">
<path d="M43.8206 186.644C46.1448 186.644 48.3665 187.054 50.4857 187.875C52.6048 188.672 54.3707 189.846 55.7835 191.395L64.1234 184.764L54.5872 205.204L53.7669 195.257C53.015 194.346 52.2174 193.628 51.3743 193.104C50.5312 192.58 49.7109 192.193 48.9134 191.942C48.1387 191.668 47.4323 191.498 46.7943 191.429C46.179 191.361 45.7005 191.327 45.3587 191.327C43.513 191.327 41.7926 191.794 40.1976 192.728C38.6253 193.662 37.2581 195.007 36.096 196.761C34.9339 198.493 34.011 200.589 33.3275 203.05C32.6666 205.511 32.3362 208.257 32.3362 211.288C32.3362 214.318 32.6666 217.087 33.3275 219.593C34.011 222.1 34.9225 224.253 36.0618 226.053C37.2239 227.853 38.5797 229.255 40.1292 230.257C41.6787 231.237 43.3307 231.727 45.0853 231.727C46.8626 231.727 48.3893 231.294 49.6653 230.428C50.9414 229.54 51.9896 228.423 52.8099 227.079C53.6302 225.734 54.2226 224.264 54.5872 222.669C54.9746 221.074 55.1683 219.548 55.1683 218.089C55.1683 217.77 55.1683 217.474 55.1683 217.201C55.1683 216.904 55.1455 216.597 55.0999 216.278C56.581 217.258 57.6634 218.374 58.347 219.627C59.0534 220.858 59.4066 222.134 59.4066 223.456C59.4066 224.686 59.0989 225.996 58.4837 227.386C57.8913 228.753 57.0026 230.029 55.8177 231.214C54.6328 232.376 53.1745 233.345 51.4427 234.12C49.7109 234.872 47.7057 235.248 45.4271 235.248C43.5814 235.248 41.747 235.054 39.9241 234.667C38.1012 234.279 36.3581 233.687 34.6946 232.889C33.0312 232.069 31.4818 231.032 30.0462 229.779C28.6107 228.526 27.3688 227.033 26.3206 225.301C25.2724 223.569 24.4407 221.576 23.8255 219.32C23.2331 217.064 22.9368 214.546 22.9368 211.766C22.9368 209.055 23.2103 206.559 23.7571 204.281C24.3268 201.979 25.1015 199.906 26.0814 198.06C27.084 196.192 28.2461 194.551 29.5677 193.138C30.9121 191.703 32.3476 190.506 33.8743 189.549C35.4238 188.592 37.0416 187.875 38.7278 187.396C40.4368 186.895 42.1344 186.644 43.8206 186.644ZM68.3138 230.189L75.1497 232.923L58.0257 234.598L64.178 229.779L63.1185 192.865L55.223 189.447L72.5179 187.157L68.3138 230.189ZM81.3568 221.917C81.653 223.194 82.0517 224.447 82.553 225.677C83.0543 226.885 83.6696 227.967 84.3987 228.924C85.1279 229.881 85.971 230.656 86.928 231.249C87.8851 231.841 88.9674 232.137 90.1751 232.137C91.7702 232.137 93.1601 231.807 94.345 231.146C95.5299 230.485 96.4984 229.653 97.2503 228.651C98.0023 227.625 98.5263 226.509 98.8226 225.301C99.1188 224.071 99.1758 222.897 98.9935 221.781C99.6315 222.031 100.156 222.362 100.566 222.772C100.999 223.182 101.329 223.638 101.557 224.139C101.808 224.618 101.978 225.119 102.07 225.643C102.161 226.144 102.206 226.634 102.206 227.113C102.206 228.207 101.887 229.266 101.249 230.292C100.611 231.294 99.7112 232.194 98.5491 232.992C97.4098 233.766 96.054 234.393 94.4818 234.872C92.9095 235.35 91.1891 235.589 89.3206 235.589C86.8141 235.589 84.5696 235.099 82.5872 234.12C80.6276 233.14 78.9642 231.818 77.597 230.155C76.2298 228.469 75.1816 226.498 74.4525 224.242C73.7233 221.986 73.3587 219.582 73.3587 217.03C73.3587 214.432 73.7233 212.04 74.4525 209.852C75.1816 207.642 76.2526 205.762 77.6653 204.212C79.1009 202.663 80.8554 201.489 82.929 200.692C85.0026 199.894 87.3952 199.575 90.1068 199.735C91.9752 199.872 93.6956 200.407 95.2679 201.341C96.8401 202.276 98.2073 203.483 99.3694 204.964C100.554 206.423 101.5 208.097 102.206 209.989C102.936 211.88 103.38 213.851 103.539 215.902L81.3568 221.917ZM80.7073 216.415C80.7073 216.734 80.7073 217.053 80.7073 217.372C80.7073 217.668 80.7301 217.975 80.7757 218.294L95.7806 212.826C95.2793 211.185 94.7096 209.784 94.0716 208.622C93.4564 207.437 92.8069 206.468 92.1234 205.716C91.4398 204.964 90.7448 204.417 90.0384 204.076C89.3548 203.711 88.694 203.529 88.056 203.529C87.0989 203.529 86.2558 203.711 85.5267 204.076C84.7975 204.44 84.1595 204.942 83.6126 205.58C83.0885 206.195 82.6328 206.924 82.2454 207.767C81.8808 208.61 81.5846 209.51 81.3568 210.467C81.1289 211.424 80.958 212.416 80.8441 213.441C80.7529 214.444 80.7073 215.435 80.7073 216.415ZM133.399 213.167C133.399 214.375 133.33 215.674 133.194 217.064C133.057 218.454 132.852 219.867 132.578 221.302C132.328 222.738 132.02 224.151 131.656 225.541C131.314 226.908 130.938 228.172 130.528 229.334L137.808 234.461L124.922 233.915L125.708 229.71C124.341 231.419 122.757 232.73 120.957 233.641C119.18 234.53 117.118 235.065 114.771 235.248C112.857 235.384 111.182 235.248 109.746 234.837C108.334 234.45 107.149 233.846 106.192 233.026C105.257 232.183 104.562 231.157 104.107 229.95C103.651 228.719 103.423 227.352 103.423 225.848C103.423 224.458 103.765 223.114 104.449 221.815C105.132 220.493 106.112 219.331 107.388 218.329C108.687 217.326 110.27 216.528 112.139 215.936C114.007 215.321 116.127 215.013 118.496 215.013C119.59 215.013 120.843 215.116 122.256 215.321C123.692 215.526 125.048 215.959 126.324 216.62C126.21 215.23 125.993 213.817 125.674 212.381C125.378 210.923 124.934 209.601 124.341 208.417C123.749 207.232 122.974 206.275 122.017 205.545C121.083 204.793 119.909 204.417 118.496 204.417C117.289 204.417 116.115 204.668 114.976 205.169C113.837 205.671 112.766 206.389 111.763 207.323C110.783 208.257 109.895 209.396 109.097 210.741C108.299 212.085 107.627 213.6 107.08 215.287L104.209 198.539L108.55 205.204C109.621 203.882 110.703 202.834 111.797 202.059C112.891 201.262 113.973 200.658 115.044 200.248C116.138 199.815 117.186 199.53 118.189 199.393C119.214 199.256 120.194 199.188 121.128 199.188C122.883 199.279 124.501 199.644 125.982 200.282C127.486 200.897 128.784 201.797 129.878 202.982C130.972 204.144 131.826 205.58 132.442 207.289C133.08 208.998 133.399 210.957 133.399 213.167ZM126.324 224.105C126.369 223.467 126.403 222.852 126.426 222.259C126.449 221.667 126.46 221.086 126.46 220.516V220.106C125.64 219.787 124.808 219.548 123.965 219.388C123.145 219.206 122.381 219.081 121.675 219.012C120.969 218.921 120.365 218.875 119.864 218.875C119.385 218.853 119.066 218.841 118.907 218.841C117.608 218.887 116.48 219.126 115.523 219.559C114.566 219.992 113.768 220.539 113.13 221.2C112.515 221.838 112.048 222.556 111.729 223.353C111.433 224.151 111.284 224.937 111.284 225.711C111.284 227.466 111.706 228.799 112.549 229.71C113.415 230.599 114.668 231.043 116.309 231.043C117.403 231.043 118.439 230.85 119.419 230.462C120.399 230.075 121.311 229.562 122.154 228.924C123.02 228.264 123.794 227.523 124.478 226.703C125.184 225.86 125.799 224.994 126.324 224.105ZM167.189 213.236C167.189 214.512 167.132 215.856 167.018 217.269C166.904 218.682 166.733 220.095 166.505 221.507C166.277 222.92 165.992 224.299 165.651 225.643C165.332 226.987 164.956 228.218 164.523 229.334L171.256 231.522L153.449 235.008L159.498 230.462C159.977 228.708 160.296 227.022 160.455 225.404C160.638 223.786 160.729 222.259 160.729 220.824C160.729 219.958 160.695 218.978 160.626 217.884C160.581 216.768 160.455 215.64 160.25 214.5C160.068 213.361 159.795 212.245 159.43 211.151C159.088 210.057 158.632 209.089 158.063 208.246C157.493 207.38 156.787 206.696 155.944 206.195C155.123 205.671 154.132 205.409 152.97 205.409C151.626 205.409 150.258 205.853 148.868 206.742C147.478 207.63 146.191 208.941 145.006 210.672V229.574L150.646 233.607L133.727 234.803L138.204 229.847L140.597 204.999L133.317 201.41L145.006 200.248V205.409C145.667 204.497 146.396 203.643 147.194 202.845C147.991 202.048 148.834 201.364 149.723 200.794C150.612 200.202 151.534 199.746 152.492 199.427C153.471 199.085 154.474 198.915 155.499 198.915C157.482 198.915 159.202 199.279 160.66 200.008C162.119 200.737 163.326 201.751 164.284 203.05C165.263 204.326 165.992 205.842 166.471 207.596C166.95 209.328 167.189 211.208 167.189 213.236ZM208.225 187.977L205.559 208.006L201.628 193.377L191.135 194.574L192.536 228.719L201.013 233.06L173.703 235.658L183.65 228.446L185.393 194.916L174.558 194.505L170.354 206.947L169.021 188.558L208.225 187.977ZM203.87 234.051L209.134 229.779L211.561 191.703L203.939 187.909L216.038 185.892L216.175 205.135C216.95 204.019 217.804 203.107 218.739 202.401C219.673 201.672 220.584 201.102 221.473 200.692C222.384 200.282 223.216 199.997 223.968 199.837C224.743 199.678 225.347 199.598 225.78 199.598C227.922 199.598 229.733 199.986 231.214 200.76C232.695 201.512 233.892 202.56 234.803 203.905C235.737 205.249 236.409 206.844 236.82 208.69C237.253 210.513 237.469 212.495 237.469 214.637C237.469 215.822 237.367 217.087 237.161 218.431C236.979 219.776 236.728 221.131 236.409 222.499C236.09 223.843 235.726 225.153 235.316 226.429C234.928 227.682 234.53 228.822 234.119 229.847L240.887 233.607L223.182 235.453L230.667 228.651C230.986 226.965 231.214 225.381 231.351 223.9C231.51 222.419 231.59 221.04 231.59 219.764C231.59 219.126 231.545 218.351 231.453 217.44C231.385 216.528 231.237 215.583 231.009 214.603C230.781 213.6 230.474 212.609 230.086 211.629C229.699 210.65 229.186 209.772 228.548 208.998C227.933 208.223 227.181 207.596 226.292 207.118C225.426 206.639 224.39 206.4 223.182 206.4C221.997 206.4 220.778 206.662 219.525 207.186C218.294 207.71 217.178 208.542 216.175 209.681L216.414 230.257L220.96 234.051H203.87ZM238.788 234.803L244.155 230.599L242.992 207.015L236.669 202.879L251.367 200.384L248.735 227.796L256.083 232.376L238.788 234.803ZM251.742 192.113C251.742 192.796 251.606 193.446 251.332 194.061C251.059 194.653 250.683 195.189 250.204 195.667C249.726 196.123 249.179 196.488 248.564 196.761C247.949 197.012 247.299 197.137 246.616 197.137C245.886 197.137 245.203 197.012 244.565 196.761C243.95 196.488 243.414 196.123 242.958 195.667C242.503 195.189 242.138 194.653 241.865 194.061C241.591 193.446 241.454 192.796 241.454 192.113C241.454 191.406 241.591 190.757 241.865 190.165C242.138 189.549 242.503 189.014 242.958 188.558C243.414 188.102 243.95 187.749 244.565 187.499C245.203 187.225 245.886 187.088 246.616 187.088C247.299 187.088 247.949 187.225 248.564 187.499C249.179 187.749 249.726 188.102 250.204 188.558C250.683 189.014 251.059 189.549 251.332 190.165C251.606 190.757 251.742 191.406 251.742 192.113ZM266.905 199.667C267.77 199.667 268.648 199.746 269.536 199.906C270.425 200.042 271.291 200.259 272.134 200.555C273 200.829 273.809 201.17 274.561 201.581C275.336 201.968 276.031 202.401 276.646 202.879L282.251 195.975L279.722 213.031C279.449 211.846 278.97 210.684 278.286 209.544C277.603 208.382 276.748 207.346 275.723 206.434C274.72 205.523 273.558 204.793 272.237 204.247C270.915 203.677 269.468 203.392 267.896 203.392C267.03 203.392 266.198 203.495 265.401 203.7C264.603 203.882 263.897 204.19 263.282 204.623C262.689 205.056 262.211 205.602 261.846 206.263C261.504 206.924 261.333 207.71 261.333 208.622C261.333 209.715 261.63 210.604 262.222 211.288C262.837 211.971 263.635 212.552 264.615 213.031C265.594 213.486 266.711 213.885 267.964 214.227C269.217 214.546 270.505 214.888 271.826 215.252C273.148 215.617 274.436 216.05 275.689 216.551C276.942 217.03 278.059 217.656 279.038 218.431C280.018 219.206 280.804 220.174 281.397 221.336C282.012 222.476 282.32 223.889 282.32 225.575C282.32 227.466 281.944 229.084 281.192 230.428C280.463 231.75 279.517 232.844 278.355 233.709C277.193 234.553 275.905 235.168 274.492 235.555C273.08 235.943 271.701 236.136 270.357 236.136C269.263 236.136 268.169 236.022 267.076 235.794C265.982 235.567 264.922 235.248 263.897 234.837C262.871 234.427 261.892 233.937 260.957 233.368C260.046 232.798 259.214 232.183 258.462 231.522L253.267 238.46L254.873 221.507C255.603 223.057 256.48 224.504 257.505 225.848C258.531 227.193 259.67 228.366 260.923 229.369C262.176 230.348 263.521 231.123 264.956 231.693C266.392 232.24 267.884 232.513 269.434 232.513C271.234 232.513 272.67 232.137 273.741 231.385C274.834 230.611 275.381 229.517 275.381 228.104C275.381 227.193 275.074 226.441 274.458 225.848C273.866 225.233 273.068 224.697 272.066 224.242C271.086 223.786 269.969 223.376 268.716 223.011C267.463 222.647 266.175 222.248 264.854 221.815C263.532 221.382 262.245 220.881 260.992 220.311C259.738 219.719 258.61 218.989 257.608 218.124C256.628 217.235 255.83 216.164 255.215 214.911C254.623 213.635 254.326 212.097 254.326 210.296C254.326 208.747 254.554 207.403 255.01 206.263C255.466 205.124 256.058 204.167 256.787 203.392C257.539 202.595 258.371 201.957 259.283 201.478C260.217 200.977 261.151 200.601 262.085 200.35C263.02 200.077 263.908 199.894 264.751 199.803C265.594 199.712 266.312 199.667 266.905 199.667ZM291.261 224.31L287.194 224.105L287.365 186.849L296.388 187.977L291.261 224.31ZM294.269 232.513C294.269 233.242 294.075 233.869 293.688 234.393C293.323 234.917 292.867 235.339 292.321 235.658C291.797 236 291.238 236.239 290.646 236.375C290.053 236.535 289.541 236.615 289.108 236.615C288.629 236.615 288.082 236.535 287.467 236.375C286.875 236.239 286.316 236 285.792 235.658C285.268 235.339 284.824 234.917 284.459 234.393C284.095 233.869 283.912 233.242 283.912 232.513C283.912 231.738 284.095 231.078 284.459 230.531C284.824 229.984 285.268 229.54 285.792 229.198C286.316 228.833 286.875 228.571 287.467 228.412C288.082 228.252 288.629 228.172 289.108 228.172C289.541 228.172 290.053 228.252 290.646 228.412C291.238 228.571 291.797 228.833 292.321 229.198C292.867 229.54 293.323 229.984 293.688 230.531C294.075 231.078 294.269 231.738 294.269 232.513Z" fill="white"/>
</g>
<g filter="url(#filter3_d_267_1079)">
<path d="M160.458 110.947C163.893 110.789 166.8 109.468 169.178 106.984C171.556 104.5 172.771 101.541 172.771 98.1062C172.771 101.541 173.934 104.5 176.311 106.984C178.689 109.468 181.596 110.789 185.031 110.947C181.596 111.106 178.689 112.427 176.311 114.91C173.934 117.394 172.771 120.353 172.771 123.788C172.771 120.353 171.608 117.394 169.178 114.91C166.8 112.427 163.893 111.106 160.458 110.947ZM172.771 72.8998C179.429 72.5828 185.084 69.9935 189.734 65.1319C194.384 60.2703 196.709 39.7199 196.709 33.0088C196.709 39.7199 199.034 60.2703 203.684 65.1319C208.335 69.9935 213.989 72.5299 220.7 72.8998C216.314 73.1112 212.298 74.3266 208.599 76.6517C204.953 78.924 202.046 81.9889 199.88 85.7937C197.766 89.5984 196.709 110.472 196.709 114.91C196.709 108.199 194.384 85.5823 189.734 80.7207C185.084 75.8062 179.429 73.2169 172.771 72.8998ZM190.315 129.812C195.335 129.601 199.615 127.646 203.103 123.999C206.591 120.353 208.335 116.02 208.335 110.947C208.335 116.02 210.078 120.353 213.566 123.999C217.054 127.646 221.281 129.601 226.301 129.812C221.281 130.024 217.054 131.979 213.566 135.625C210.078 139.271 208.335 143.604 208.335 148.677C208.335 143.604 206.591 139.271 203.103 135.625C199.563 131.979 195.335 130.076 190.315 129.812ZM226.301 104.764C231.322 104.553 235.549 102.598 239.037 98.9517C242.524 95.3055 244.215 90.9723 244.215 85.8465C244.215 90.9195 245.959 95.2526 249.447 98.8988C252.935 102.545 257.215 104.5 262.235 104.712C257.215 104.923 252.935 106.878 249.447 110.524C245.959 114.171 244.215 118.504 244.215 123.577C244.215 118.504 242.472 114.171 239.037 110.524C235.549 106.931 231.322 104.976 226.301 104.764Z" fill="white"/>
</g>
<defs>
<filter id="filter0_d_267_1079" x="74.8539" y="71.1084" width="131.782" height="183.266" filterUnits="userSpaceOnUse" color-interpolation-filters="sRGB">
<feFlood flood-opacity="0" result="BackgroundImageFix"/>
<feColorMatrix in="SourceAlpha" type="matrix" values="0 0 0 0 0 0 0 0 0 0 0 0 0 0 0 0 0 0 127 0" result="hardAlpha"/>
<feOffset dy="4"/>
<feGaussianBlur stdDeviation="2"/>
<feComposite in2="hardAlpha" operator="out"/>
<feColorMatrix type="matrix" values="0 0 0 0 0 0 0 0 0 0 0 0 0 0 0 0 0 0 0.25 0"/>
<feBlend mode="normal" in2="BackgroundImageFix" result="effect1_dropShadow_267_1079"/>
<feBlend mode="normal" in="SourceGraphic" in2="effect1_dropShadow_267_1079" result="shape"/>
</filter>
<filter id="filter1_d_267_1079" x="70.6723" y="59.8721" width="178.122" height="231.782" filterUnits="userSpaceOnUse" color-interpolation-filters="sRGB">
<feFlood flood-opacity="0" result="BackgroundImageFix"/>
<feColorMatrix in="SourceAlpha" type="matrix" values="0 0 0 0 0 0 0 0 0 0 0 0 0 0 0 0 0 0 127 0" result="hardAlpha"/>
<feOffset dy="4"/>
<feGaussianBlur stdDeviation="2"/>
<feComposite in2="hardAlpha" operator="out"/>
<feColorMatrix type="matrix" values="0 0 0 0 0 0 0 0 0 0 0 0 0 0 0 0 0 0 0.25 0"/>
<feBlend mode="normal" in2="BackgroundImageFix" result="effect1_dropShadow_267_1079"/>
<feBlend mode="normal" in="SourceGraphic" in2="effect1_dropShadow_267_1079" result="shape"/>
</filter>
<filter id="filter2_d_267_1079" x="18.9368" y="184.764" width="281.451" height="61.6963" filterUnits="userSpaceOnUse" color-interpolation-filters="sRGB">
<feFlood flood-opacity="0" result="BackgroundImageFix"/>
<feColorMatrix in="SourceAlpha" type="matrix" values="0 0 0 0 0 0 0 0 0 0 0 0 0 0 0 0 0 0 127 0" result="hardAlpha"/>
<feOffset dy="4"/>
<feGaussianBlur stdDeviation="2"/>
<feComposite in2="hardAlpha" operator="out"/>
<feColorMatrix type="matrix" values="0 0 0 0 0 0 0 0 0 0 0 0 0 0 0 0 0 0 0.25 0"/>
<feBlend mode="normal" in2="BackgroundImageFix" result="effect1_dropShadow_267_1079"/>
<feBlend mode="normal" in="SourceGraphic" in2="effect1_dropShadow_267_1079" result="shape"/>
</filter>
<filter id="filter3_d_267_1079" x="156.458" y="33.0088" width="109.777" height="123.668" filterUnits="userSpaceOnUse" color-interpolation-filters="sRGB">
<feFlood flood-opacity="0" result="BackgroundImageFix"/>
<feColorMatrix in="SourceAlpha" type="matrix" values="0 0 0 0 0 0 0 0 0 0 0 0 0 0 0 0 0 0 127 0" result="hardAlpha"/>
<feOffset dy="4"/>
<feGaussianBlur stdDeviation="2"/>
<feComposite in2="hardAlpha" operator="out"/>
<feColorMatrix type="matrix" values="0 0 0 0 0 0 0 0 0 0 0 0 0 0 0 0 0 0 0.25 0"/>
<feBlend mode="normal" in2="BackgroundImageFix" result="effect1_dropShadow_267_1079"/>
<feBlend mode="normal" in="SourceGraphic" in2="effect1_dropShadow_267_1079" result="shape"/>
</filter>
</defs>
</svg>
