<svg width="138" height="110" viewBox="0 0 138 110" fill="none" xmlns="http://www.w3.org/2000/svg">
<path d="M13.75 110C9.96875 110 6.73292 108.655 4.0425 105.964C1.35208 103.274 0.00458333 100.036 0 96.25V13.75C0 9.96875 1.3475 6.73291 4.0425 4.0425C6.7375 1.35208 9.97333 0.00458333 13.75 0H123.75C127.531 0 130.769 1.3475 133.464 4.0425C136.159 6.7375 137.505 9.97333 137.5 13.75V96.25C137.5 100.031 136.155 103.269 133.464 105.964C130.774 108.659 127.536 110.005 123.75 110H13.75ZM68.75 61.875L13.75 27.5V96.25H123.75V27.5L68.75 61.875ZM68.75 48.125L123.75 13.75H13.75L68.75 48.125ZM13.75 27.5V13.75V96.25V27.5Z" fill="white"/>
</svg>
