<svg width="44" height="44" viewBox="0 0 44 44" fill="none" xmlns="http://www.w3.org/2000/svg">
<path d="M0 12C0 5.37258 5.37258 0 12 0H32C38.6274 0 44 5.37258 44 12V32C44 38.6274 38.6274 44 32 44H12C5.37258 44 0 38.6274 0 32V12Z" fill="#DC3545"/>
<path d="M13.0195 36.0771C12.057 36.0771 11.2331 35.7725 10.5477 35.1633C9.86224 34.554 9.51953 33.8216 9.51953 32.966V12.7438H7.76953V9.6327H16.5195V8.07715H27.0195V9.6327H35.7695V12.7438H34.0195V32.966C34.0195 33.8216 33.6768 34.554 32.9914 35.1633C32.306 35.7725 31.482 36.0771 30.5195 36.0771H13.0195ZM30.5195 12.7438H13.0195V32.966H30.5195V12.7438ZM16.5195 29.8549H20.0195V15.8549H16.5195V29.8549ZM23.5195 29.8549H27.0195V15.8549H23.5195V29.8549Z" fill="white"/>
</svg>
