<svg width="110" height="110" viewBox="0 0 110 110" fill="none" xmlns="http://www.w3.org/2000/svg">
<path d="M11 110C7.975 110 5.38542 108.923 3.23125 106.769C1.07708 104.615 0 102.025 0 99V38.5C0 35.475 1.07708 32.8854 3.23125 30.7313C5.38542 28.5771 7.975 27.5 11 27.5H38.5V11C38.5 7.975 39.5771 5.38542 41.7313 3.23125C43.8854 1.07708 46.475 0 49.5 0H60.5C63.525 0 66.1146 1.07708 68.2688 3.23125C70.4229 5.38542 71.5 7.975 71.5 11V27.5H99C102.025 27.5 104.615 28.5771 106.769 30.7313C108.923 32.8854 110 35.475 110 38.5V99C110 102.025 108.923 104.615 106.769 106.769C104.615 108.923 102.025 110 99 110H11ZM11 99H99V38.5H71.5C71.5 41.525 70.4229 44.1146 68.2688 46.2688C66.1146 48.4229 63.525 49.5 60.5 49.5H49.5C46.475 49.5 43.8854 48.4229 41.7313 46.2688C39.5771 44.1146 38.5 41.525 38.5 38.5H11V99ZM22 88H55V85.525C55 83.9667 54.5646 82.5229 53.6937 81.1937C52.8229 79.8646 51.6083 78.8333 50.05 78.1C48.2167 77.275 46.3604 76.6562 44.4813 76.2438C42.6021 75.8313 40.6083 75.625 38.5 75.625C36.3917 75.625 34.3979 75.8313 32.5187 76.2438C30.6396 76.6562 28.7833 77.275 26.95 78.1C25.3917 78.8333 24.1771 79.8646 23.3063 81.1937C22.4354 82.5229 22 83.9667 22 85.525V88ZM66 79.75H88V71.5H66V79.75ZM38.5 71.5C40.7917 71.5 42.7396 70.6979 44.3438 69.0938C45.9479 67.4896 46.75 65.5417 46.75 63.25C46.75 60.9583 45.9479 59.0104 44.3438 57.4062C42.7396 55.8021 40.7917 55 38.5 55C36.2083 55 34.2604 55.8021 32.6562 57.4062C31.0521 59.0104 30.25 60.9583 30.25 63.25C30.25 65.5417 31.0521 67.4896 32.6562 69.0938C34.2604 70.6979 36.2083 71.5 38.5 71.5ZM66 63.25H88V55H66V63.25ZM49.5 38.5H60.5V11H49.5V38.5Z" fill="white"/>
</svg>
