<svg width="88" height="88" viewBox="0 0 88 88" fill="none" xmlns="http://www.w3.org/2000/svg">
<g filter="url(#filter0_d_455_997)">
<path d="M84 40C84 62.0914 66.0914 80 44 80C21.9086 80 4 62.0914 4 40C4 17.9086 21.9086 0 44 0C66.0914 0 84 17.9086 84 40Z" fill="#0C4B3B"/>
<path d="M23.7135 46.8769C23.7135 56.2461 30.621 61.5936 39.9903 61.5936C49.3595 61.5936 54.659 54.7561 54.659 45.3869C54.659 36.0177 39.3043 29.7846 37.6945 18.8876C33.9797 12.2009 23.7135 37.5077 23.7135 46.8769Z" fill="white"/>
<path d="M65.1985 49.6483C65.1985 61.3927 55.6778 70.9135 43.9333 70.9135C32.1889 70.9135 22.6681 61.3927 22.6681 49.6482C22.6681 37.9038 41.9154 30.0905 43.9333 16.431C48.5899 8.04914 65.1985 37.9038 65.1985 49.6483Z" fill="#43CAA9"/>
<path d="M17.373 46.3456C17.9057 46.3456 18.415 46.4396 18.9008 46.6276C19.3865 46.8105 19.7913 47.0795 20.1152 47.4346L22.0269 45.9147L19.841 50.5999L19.6529 48.32C19.4806 48.111 19.2977 47.9465 19.1045 47.8264C18.9112 47.7062 18.7232 47.6175 18.5404 47.56C18.3628 47.4973 18.2009 47.4581 18.0546 47.4425C17.9136 47.4268 17.8039 47.419 17.7255 47.419C17.3025 47.419 16.9081 47.526 16.5425 47.7402C16.1821 47.9543 15.8687 48.2625 15.6023 48.6647C15.3359 49.0617 15.1244 49.5422 14.9677 50.1063C14.8162 50.6704 14.7404 51.2998 14.7404 51.9945C14.7404 52.6892 14.8162 53.3239 14.9677 53.8984C15.1244 54.473 15.3333 54.9666 15.5945 55.3792C15.8608 55.7918 16.1716 56.1131 16.5268 56.3429C16.882 56.5675 17.2607 56.6798 17.6629 56.6798C18.0703 56.6798 18.4202 56.5806 18.7127 56.3821C19.0052 56.1784 19.2455 55.9224 19.4335 55.6143C19.6216 55.3061 19.7574 54.9692 19.841 54.6036C19.9298 54.2379 19.9742 53.888 19.9742 53.5537C19.9742 53.4806 19.9742 53.4127 19.9742 53.35C19.9742 53.2821 19.9689 53.2116 19.9585 53.1384C20.298 53.363 20.5461 53.619 20.7028 53.9062C20.8647 54.1883 20.9457 54.4808 20.9457 54.7838C20.9457 55.0658 20.8752 55.3661 20.7341 55.6848C20.5983 55.9982 20.3946 56.2907 20.123 56.5623C19.8514 56.8287 19.5171 57.0507 19.1202 57.2282C18.7232 57.4006 18.2635 57.4868 17.7412 57.4868C17.3181 57.4868 16.8977 57.4424 16.4798 57.3536C16.0619 57.2648 15.6624 57.129 15.2811 56.9462C14.8998 56.7581 14.5446 56.5205 14.2155 56.2332C13.8864 55.9459 13.6018 55.6038 13.3615 55.2068C13.1212 54.8099 12.9306 54.3528 12.7896 53.8357C12.6538 53.3186 12.5859 52.7415 12.5859 52.1042C12.5859 51.4827 12.6485 50.9107 12.7739 50.3884C12.9045 49.8608 13.0821 49.3855 13.3067 48.9624C13.5365 48.5341 13.8029 48.1581 14.1058 47.8342C14.414 47.5051 14.7431 47.2309 15.093 47.0116C15.4482 46.7922 15.8191 46.6276 16.2056 46.518C16.5973 46.403 16.9865 46.3456 17.373 46.3456Z" fill="white"/>
<path d="M22.9874 56.3272L24.5544 56.954L20.6291 57.3379L22.0394 56.2332L21.7965 47.7715L19.9867 46.988L23.9511 46.4631L22.9874 56.3272Z" fill="white"/>
<path d="M25.9772 54.4312C26.0451 54.7237 26.1366 55.011 26.2515 55.293C26.3664 55.5699 26.5074 55.818 26.6745 56.0373C26.8417 56.2567 27.035 56.4343 27.2543 56.5701C27.4737 56.7059 27.7218 56.7738 27.9986 56.7738C28.3643 56.7738 28.6829 56.6981 28.9545 56.5466C29.2261 56.3951 29.4481 56.2045 29.6205 55.9747C29.7928 55.7396 29.913 55.4837 29.9809 55.2068C30.0488 54.9248 30.0618 54.6558 30.02 54.3998C30.1663 54.4573 30.2864 54.533 30.3804 54.6271C30.4797 54.7211 30.5554 54.8255 30.6077 54.9405C30.6651 55.0501 30.7043 55.1651 30.7252 55.2852C30.7461 55.4001 30.7565 55.5124 30.7565 55.6221C30.7565 55.8728 30.6834 56.1157 30.5371 56.3507C30.3909 56.5806 30.1846 56.7869 29.9182 56.9697C29.657 57.1473 29.3462 57.2909 28.9858 57.4006C28.6254 57.5103 28.2311 57.5651 27.8028 57.5651C27.2282 57.5651 26.7137 57.4528 26.2593 57.2282C25.8101 57.0036 25.4288 56.7007 25.1154 56.3194C24.802 55.9329 24.5617 55.4811 24.3946 54.964C24.2275 54.4469 24.1439 53.8958 24.1439 53.3108C24.1439 52.7153 24.2275 52.1669 24.3946 51.6655C24.5617 51.1588 24.8072 50.7279 25.1311 50.3727C25.4601 50.0175 25.8623 49.7485 26.3376 49.5657C26.813 49.3829 27.3614 49.3098 27.983 49.3463C28.4113 49.3777 28.8056 49.5004 29.166 49.7146C29.5264 49.9287 29.8398 50.2056 30.1062 50.5451C30.3778 50.8794 30.5946 51.2633 30.7565 51.6968C30.9237 52.1303 31.0255 52.5822 31.0621 53.0522L25.9772 54.4312ZM25.8284 53.1698C25.8284 53.2429 25.8284 53.316 25.8284 53.3891C25.8284 53.4571 25.8336 53.5276 25.844 53.6007L29.2836 52.3471C29.1687 51.971 29.0381 51.6498 28.8918 51.3834C28.7508 51.1118 28.6019 50.8898 28.4452 50.7175C28.2885 50.5451 28.1292 50.4197 27.9673 50.3414C27.8106 50.2578 27.6591 50.216 27.5129 50.216C27.2935 50.216 27.1002 50.2578 26.9331 50.3414C26.766 50.4249 26.6197 50.5399 26.4943 50.6861C26.3742 50.8271 26.2697 50.9943 26.181 51.1875C26.0974 51.3808 26.0295 51.5871 25.9772 51.8065C25.925 52.0259 25.8858 52.2531 25.8597 52.4881C25.8388 52.718 25.8284 52.9452 25.8284 53.1698Z" fill="white"/>
<path d="M37.9066 52.4255C37.9066 52.7023 37.891 53 37.8596 53.3186C37.8283 53.6373 37.7813 53.9611 37.7186 54.2902C37.6611 54.6192 37.5906 54.9431 37.5071 55.2617C37.4287 55.5751 37.3425 55.865 37.2485 56.1314L38.9173 57.3066L35.9636 57.1812L36.1438 56.2175C35.8304 56.6093 35.4674 56.9096 35.0547 57.1186C34.6473 57.3223 34.1746 57.445 33.6366 57.4868C33.1979 57.5181 32.814 57.4868 32.4849 57.3928C32.1611 57.304 31.8894 57.1656 31.6701 56.9775C31.4559 56.7843 31.2966 56.5492 31.1921 56.2724C31.0877 55.9903 31.0354 55.6769 31.0354 55.3322C31.0354 55.0136 31.1138 54.7054 31.2705 54.4077C31.4272 54.1047 31.6518 53.8383 31.9443 53.6085C32.242 53.3787 32.605 53.1959 33.0333 53.0601C33.4616 52.9191 33.9474 52.8485 34.4906 52.8485C34.7413 52.8485 35.0286 52.872 35.3525 52.9191C35.6815 52.9661 35.9923 53.0653 36.2848 53.2168C36.2587 52.8982 36.2091 52.5743 36.136 52.2453C36.0681 51.911 35.9662 51.608 35.8304 51.3364C35.6946 51.0648 35.517 50.8454 35.2976 50.6783C35.0835 50.5059 34.8145 50.4197 34.4906 50.4197C34.2138 50.4197 33.9448 50.4772 33.6836 50.5921C33.4225 50.707 33.177 50.8715 32.9472 51.0857C32.7226 51.2998 32.5188 51.561 32.336 51.8692C32.1532 52.1774 31.9991 52.5247 31.8738 52.9112L31.2156 49.0721L32.2107 50.5999C32.4562 50.297 32.7043 50.0567 32.955 49.8791C33.2057 49.6963 33.4538 49.5579 33.6993 49.4639C33.95 49.3646 34.1903 49.2993 34.4201 49.268C34.6552 49.2367 34.8798 49.221 35.0939 49.221C35.4961 49.2419 35.867 49.3255 36.2065 49.4717C36.5512 49.6127 36.8489 49.8191 37.0996 50.0907C37.3504 50.357 37.5462 50.6861 37.6873 51.0779C37.8335 51.4696 37.9066 51.9188 37.9066 52.4255ZM36.2848 54.9326C36.2953 54.7864 36.3031 54.6453 36.3083 54.5095C36.3135 54.3737 36.3162 54.2405 36.3162 54.11V54.0159C36.1281 53.9428 35.9375 53.888 35.7442 53.8514C35.5562 53.8096 35.3812 53.7809 35.2193 53.7652C35.0574 53.7443 34.9189 53.7339 34.804 53.7339C34.6943 53.7287 34.6212 53.726 34.5846 53.726C34.2869 53.7365 34.0284 53.7913 33.809 53.8906C33.5896 53.9898 33.4068 54.1152 33.2606 54.2667C33.1195 54.4129 33.0124 54.5774 32.9393 54.7603C32.8714 54.9431 32.8375 55.1233 32.8375 55.3009C32.8375 55.7031 32.9341 56.0086 33.1274 56.2175C33.3258 56.4212 33.6131 56.5231 33.9892 56.5231C34.2399 56.5231 34.4776 56.4787 34.7022 56.3899C34.9268 56.3011 35.1357 56.1836 35.329 56.0373C35.5274 55.8859 35.705 55.7161 35.8617 55.5281C36.0237 55.3348 36.1647 55.1363 36.2848 54.9326Z" fill="white"/>
<path d="M45.6522 52.4411C45.6522 52.7336 45.6391 53.0418 45.613 53.3656C45.5869 53.6895 45.5477 54.0133 45.4955 54.3372C45.4433 54.661 45.378 54.977 45.2996 55.2852C45.2265 55.5934 45.1403 55.8754 45.0411 56.1314L46.5846 56.6328L42.5026 57.4319L43.8894 56.3899C43.999 55.9877 44.0722 55.6012 44.1087 55.2303C44.1505 54.8595 44.1714 54.5095 44.1714 54.1805C44.1714 53.982 44.1636 53.7574 44.1479 53.5067C44.1375 53.2507 44.1087 52.9922 44.0617 52.731C44.0199 52.4699 43.9573 52.2139 43.8737 51.9632C43.7953 51.7125 43.6909 51.4905 43.5603 51.2972C43.4297 51.0988 43.2678 50.9421 43.0745 50.8271C42.8865 50.707 42.6593 50.6469 42.3929 50.6469C42.0847 50.6469 41.7713 50.7488 41.4527 50.9525C41.1341 51.1562 40.839 51.4565 40.5674 51.8535V56.1862L41.8601 57.1107L37.9819 57.3849L39.0082 56.2489L39.5567 50.5529L37.8878 49.7303L40.5674 49.4639V50.6469C40.7188 50.438 40.886 50.2421 41.0688 50.0593C41.2516 49.8765 41.4449 49.7198 41.6486 49.5892C41.8523 49.4534 42.0638 49.349 42.2832 49.2758C42.5078 49.1975 42.7376 49.1583 42.9727 49.1583C43.4271 49.1583 43.8215 49.2419 44.1557 49.409C44.49 49.5762 44.7669 49.8086 44.9862 50.1063C45.2108 50.3988 45.378 50.7462 45.4877 51.1484C45.5974 51.5453 45.6522 51.9763 45.6522 52.4411Z" fill="white"/>
<path d="M55.0588 46.6511L54.4477 51.2424L53.5466 47.8891L51.1413 48.1633L51.4626 55.9903L53.4056 56.9854L47.1455 57.5808L49.4255 55.9277L49.8251 48.2416L47.3414 48.1476L46.3777 50.9995L46.0722 46.7843L55.0588 46.6511Z" fill="white"/>
<path d="M54.0606 57.2126L55.2672 56.2332L55.8235 47.5051L54.0763 46.6355L56.8498 46.1732L56.8812 50.5843C57.0588 50.3283 57.2546 50.1194 57.4688 49.9575C57.6829 49.7903 57.8919 49.6597 58.0956 49.5657C58.3045 49.4717 58.4952 49.4064 58.6675 49.3699C58.8451 49.3333 58.9835 49.315 59.0828 49.315C59.5738 49.315 59.989 49.4038 60.3285 49.5814C60.668 49.7538 60.9422 49.994 61.1512 50.3022C61.3653 50.6104 61.5194 50.976 61.6134 51.3991C61.7127 51.8169 61.7623 52.2714 61.7623 52.7624C61.7623 53.034 61.7388 53.3239 61.6918 53.632C61.65 53.9402 61.5925 54.251 61.5194 54.5644C61.4463 54.8726 61.3627 55.1729 61.2687 55.4654C61.1799 55.7527 61.0885 56.0138 60.9945 56.2489L62.5458 57.1107L58.4873 57.5338L60.2032 55.9747C60.2763 55.5881 60.3285 55.2251 60.3599 54.8856C60.3964 54.5461 60.4147 54.2301 60.4147 53.9376C60.4147 53.7913 60.4043 53.6138 60.3834 53.4048C60.3677 53.1959 60.3337 52.9791 60.2815 52.7545C60.2293 52.5247 60.1588 52.2975 60.07 52.0729C59.9812 51.8483 59.8636 51.6472 59.7174 51.4696C59.5764 51.292 59.404 51.1484 59.2003 51.0387C59.0018 50.929 58.7641 50.8741 58.4873 50.8741C58.2157 50.8741 57.9363 50.9342 57.649 51.0544C57.3669 51.1745 57.111 51.3651 56.8812 51.6263L56.936 56.3429L57.9781 57.2126H54.0606Z" fill="white"/>
<path d="M62.0647 57.3849L63.2948 56.4212L63.0284 51.0152L61.579 50.0672L64.948 49.4952L64.3447 55.7788L66.0292 56.8287L62.0647 57.3849ZM65.0341 47.5992C65.0341 47.7559 65.0028 47.9047 64.9401 48.0458C64.8775 48.1816 64.7913 48.3043 64.6816 48.414C64.5719 48.5185 64.4465 48.602 64.3055 48.6647C64.1645 48.7222 64.0156 48.7509 63.8589 48.7509C63.6918 48.7509 63.5351 48.7222 63.3888 48.6647C63.2478 48.602 63.125 48.5185 63.0206 48.414C62.9161 48.3043 62.8325 48.1816 62.7699 48.0458C62.7072 47.9047 62.6758 47.7559 62.6758 47.5992C62.6758 47.4372 62.7072 47.2884 62.7699 47.1526C62.8325 47.0116 62.9161 46.8888 63.0206 46.7843C63.125 46.6799 63.2478 46.5989 63.3888 46.5415C63.5351 46.4788 63.6918 46.4474 63.8589 46.4474C64.0156 46.4474 64.1645 46.4788 64.3055 46.5415C64.4465 46.5989 64.5719 46.6799 64.6816 46.7843C64.7913 46.8888 64.8775 47.0116 64.9401 47.1526C65.0028 47.2884 65.0341 47.4372 65.0341 47.5992Z" fill="white"/>
<path d="M68.5097 49.3307C68.7082 49.3307 68.9093 49.349 69.113 49.3855C69.3167 49.4169 69.5152 49.4665 69.7084 49.5344C69.9069 49.5971 70.0924 49.6754 70.2647 49.7694C70.4423 49.8582 70.6016 49.9575 70.7426 50.0672L72.0276 48.4845L71.4478 52.3941C71.3851 52.1225 71.2754 51.8561 71.1187 51.595C70.962 51.3286 70.7662 51.0909 70.5311 50.882C70.3013 50.6731 70.0349 50.5059 69.7319 50.3806C69.429 50.25 69.0973 50.1847 68.7369 50.1847C68.5384 50.1847 68.3478 50.2082 68.165 50.2552C67.9822 50.297 67.8202 50.3675 67.6792 50.4667C67.5434 50.566 67.4337 50.6913 67.3501 50.8428C67.2718 50.9943 67.2326 51.1745 67.2326 51.3834C67.2326 51.6341 67.3005 51.8378 67.4363 51.9945C67.5774 52.1512 67.7602 52.2844 67.9848 52.3941C68.2094 52.4986 68.4653 52.59 68.7526 52.6683C69.0399 52.7415 69.335 52.8198 69.6379 52.9034C69.9409 52.987 70.236 53.0862 70.5233 53.2011C70.8105 53.3108 71.0665 53.4544 71.2911 53.632C71.5157 53.8096 71.6959 54.0316 71.8317 54.298C71.9727 54.5592 72.0432 54.883 72.0432 55.2695C72.0432 55.7031 71.9571 56.0739 71.7847 56.3821C71.6175 56.685 71.4008 56.9357 71.1344 57.1342C70.868 57.3275 70.5729 57.4685 70.249 57.5573C69.9252 57.6461 69.6092 57.6905 69.301 57.6905C69.0503 57.6905 68.7996 57.6644 68.5489 57.6122C68.2982 57.5599 68.0553 57.4868 67.8202 57.3928C67.5852 57.2988 67.3606 57.1865 67.1464 57.0559C66.9375 56.9253 66.7469 56.7843 66.5745 56.6328L65.3836 58.2233L65.7518 54.3372C65.919 54.6924 66.1201 55.024 66.3551 55.3322C66.5902 55.6404 66.8513 55.9094 67.1386 56.1392C67.4259 56.3638 67.7341 56.5414 68.0631 56.672C68.3922 56.7973 68.7343 56.86 69.0895 56.86C69.5021 56.86 69.8312 56.7738 70.0767 56.6015C70.3274 56.4239 70.4528 56.1731 70.4528 55.8493C70.4528 55.6404 70.3822 55.468 70.2412 55.3322C70.1054 55.1912 69.9226 55.0684 69.6928 54.964C69.4682 54.8595 69.2122 54.7655 68.925 54.6819C68.6377 54.5983 68.3426 54.5069 68.0396 54.4077C67.7367 54.3084 67.4416 54.1935 67.1543 54.063C66.867 53.9271 66.6084 53.76 66.3786 53.5615C66.154 53.3578 65.9712 53.1123 65.8302 52.825C65.6944 52.5325 65.6265 52.18 65.6265 51.7673C65.6265 51.4121 65.6787 51.104 65.7832 50.8428C65.8876 50.5816 66.0234 50.3623 66.1906 50.1847C66.3629 50.0019 66.5536 49.8556 66.7625 49.7459C66.9767 49.631 67.1908 49.5448 67.405 49.4874C67.6191 49.4247 67.8228 49.3829 68.0161 49.362C68.2094 49.3411 68.3739 49.3307 68.5097 49.3307Z" fill="white"/>
<path d="M74.0928 54.9796L73.1605 54.9326L73.1997 46.3926L75.2681 46.6511L74.0928 54.9796ZM74.7823 56.86C74.7823 57.0271 74.7379 57.1708 74.6491 57.2909C74.5656 57.4111 74.4611 57.5077 74.3357 57.5808C74.2156 57.6592 74.0876 57.714 73.9518 57.7453C73.816 57.7819 73.6985 57.8002 73.5993 57.8002C73.4896 57.8002 73.3642 57.7819 73.2232 57.7453C73.0874 57.714 72.9594 57.6592 72.8393 57.5808C72.7191 57.5077 72.6173 57.4111 72.5337 57.2909C72.4501 57.1708 72.4083 57.0271 72.4083 56.86C72.4083 56.6824 72.4501 56.5309 72.5337 56.4056C72.6173 56.2802 72.7191 56.1784 72.8393 56.1C72.9594 56.0164 73.0874 55.9564 73.2232 55.9198C73.3642 55.8833 73.4896 55.865 73.5993 55.865C73.6985 55.865 73.816 55.8833 73.9518 55.9198C74.0876 55.9564 74.2156 56.0164 74.3357 56.1C74.4611 56.1784 74.5656 56.2802 74.6491 56.4056C74.7379 56.5309 74.7823 56.6824 74.7823 56.86Z" fill="white"/>
<path d="M44.1146 27.7367C44.9733 27.6971 45.6999 27.3668 46.2944 26.7459C46.8889 26.125 47.1927 25.3852 47.1927 24.5265C47.1927 25.3852 47.4834 26.125 48.0779 26.7459C48.6724 27.3668 49.399 27.6971 50.2577 27.7367C49.399 27.7764 48.6724 28.1066 48.0779 28.7276C47.4834 29.3485 47.1927 30.0883 47.1927 30.947C47.1927 30.0883 46.9021 29.3485 46.2944 28.7276C45.6999 28.1066 44.9733 27.7764 44.1146 27.7367Z" fill="white"/>
<path d="M47.1927 18.2249C48.8573 18.1457 50.2709 17.4983 51.4334 16.2829C52.596 15.0675 53.1773 9.92993 53.1773 8.25215C53.1773 9.92993 53.7585 15.0675 54.9211 16.2829C56.0837 17.4983 57.4972 18.1324 59.175 18.2249C58.0785 18.2778 57.0745 18.5816 56.1497 19.1629C55.2382 19.731 54.5116 20.4972 53.9699 21.4484C53.4415 22.3995 53.1773 27.6178 53.1773 28.7276C53.1773 27.0498 52.596 21.3955 51.4334 20.1801C50.2709 18.9515 48.8573 18.3042 47.1927 18.2249Z" fill="white"/>
<path d="M51.5788 32.453C52.8338 32.4002 53.9039 31.9114 54.7758 30.9998C55.6477 30.0883 56.0837 29.005 56.0837 27.7367C56.0837 29.005 56.5196 30.0883 57.3915 30.9998C58.2635 31.9114 59.3203 32.4002 60.5754 32.453C59.3203 32.5059 58.2635 32.9947 57.3915 33.9062C56.5196 34.8178 56.0837 35.901 56.0837 37.1693C56.0837 35.901 55.6477 34.8178 54.7758 33.9062C53.8907 32.9947 52.8338 32.5191 51.5788 32.453Z" fill="white"/>
<path d="M60.5754 26.1911C61.8304 26.1382 62.8873 25.6494 63.7592 24.7379C64.6311 23.8263 65.0538 22.743 65.0538 21.4616C65.0538 22.7298 65.4898 23.8131 66.3617 24.7247C67.2336 25.6362 68.3037 26.125 69.5587 26.1779C68.3037 26.2307 67.2336 26.7195 66.3617 27.6311C65.4898 28.5426 65.0538 29.6259 65.0538 30.8941C65.0538 29.6259 64.6179 28.5426 63.7592 27.6311C62.8873 26.7327 61.8304 26.2439 60.5754 26.1911Z" fill="white"/>
</g>
<defs>
<filter id="filter0_d_455_997" x="0" y="0" width="88" height="88" filterUnits="userSpaceOnUse" color-interpolation-filters="sRGB">
<feFlood flood-opacity="0" result="BackgroundImageFix"/>
<feColorMatrix in="SourceAlpha" type="matrix" values="0 0 0 0 0 0 0 0 0 0 0 0 0 0 0 0 0 0 127 0" result="hardAlpha"/>
<feOffset dy="4"/>
<feGaussianBlur stdDeviation="2"/>
<feComposite in2="hardAlpha" operator="out"/>
<feColorMatrix type="matrix" values="0 0 0 0 0 0 0 0 0 0 0 0 0 0 0 0 0 0 0.25 0"/>
<feBlend mode="normal" in2="BackgroundImageFix" result="effect1_dropShadow_455_997"/>
<feBlend mode="normal" in="SourceGraphic" in2="effect1_dropShadow_455_997" result="shape"/>
</filter>
</defs>
</svg>
